<?xml version="1.0" standalone="no"?>
<!DOCTYPE svg PUBLIC "-//W3C//DTD SVG 1.1//EN" "http://www.w3.org/Graphics/SVG/1.1/DTD/svg11.dtd">
<svg width="100%" height="100%" viewBox="0 0 103 77" version="1.1" xmlns="http://www.w3.org/2000/svg" xmlns:xlink="http://www.w3.org/1999/xlink" xml:space="preserve" style="fill-rule:evenodd;clip-rule:evenodd;stroke-linejoin:round;stroke-miterlimit:1.41421;">
    <g transform="matrix(1,0,0,1,-0.976046,-13.9609)">
        <path d="M16.772,13.962C17.061,13.973 17.342,14.014 17.624,14.073C17.917,14.141 18.207,14.215 18.498,14.288C19.646,14.583 20.786,14.909 21.913,15.274C24.04,15.962 26.125,16.782 28.147,17.737C29.18,18.225 30.197,18.749 31.194,19.306C31.478,19.465 31.761,19.627 32.041,19.791C32.233,19.903 32.42,20.022 32.614,20.128C32.688,20.167 32.762,20.203 32.838,20.237C33.317,20.445 33.839,20.538 34.36,20.497C34.567,20.481 34.771,20.443 34.971,20.388C35.242,20.31 35.513,20.235 35.784,20.16C37.506,19.693 39.246,19.296 41.002,18.979C44.545,18.338 48.142,18.006 51.742,17.975C54.883,17.948 58.026,18.148 61.138,18.582C63.148,18.863 65.144,19.241 67.117,19.719C67.822,19.89 68.524,20.073 69.222,20.27C69.396,20.318 69.568,20.368 69.742,20.418C69.883,20.459 70.023,20.503 70.166,20.54C70.234,20.557 70.302,20.572 70.371,20.585C70.594,20.623 70.818,20.641 71.043,20.634C71.611,20.614 72.171,20.439 72.648,20.131C72.766,20.055 72.878,19.972 72.984,19.881C73.115,19.77 73.237,19.649 73.363,19.533C73.498,19.411 73.498,19.411 73.634,19.291C74.391,18.636 75.197,18.042 76.053,17.522C77.596,16.584 79.276,15.886 81.008,15.385C81.915,15.123 82.836,14.914 83.765,14.748C84.094,14.69 84.424,14.637 84.755,14.589C84.948,14.561 85.142,14.536 85.336,14.509C85.501,14.482 85.666,14.451 85.832,14.423C86.176,14.373 86.522,14.348 86.869,14.401C87.076,14.433 87.28,14.49 87.473,14.573C87.635,14.642 87.789,14.729 87.933,14.83C88.269,15.065 88.538,15.378 88.752,15.726C88.898,15.963 89.019,16.214 89.142,16.463C89.264,16.709 89.294,16.768 89.413,17.017C89.678,17.569 89.929,18.129 90.165,18.695C91.288,21.387 92.063,24.221 92.452,27.112C92.639,28.507 92.738,29.914 92.754,31.321C92.763,32.145 92.742,32.969 92.697,33.792C92.883,33.981 93.065,34.173 93.247,34.365C94.196,35.379 95.101,36.431 95.949,37.53C97.612,39.686 99.06,42.009 100.234,44.467C101.299,46.694 102.136,49.03 102.712,51.431C103.293,53.858 103.606,56.349 103.64,58.845C103.671,61.131 103.473,63.423 102.987,65.658C102.519,67.813 101.78,69.908 100.765,71.866C99.818,73.694 98.635,75.396 97.267,76.933C96.86,77.39 96.437,77.833 95.999,78.261C92.823,81.369 88.934,83.664 84.851,85.369C82.728,86.256 80.542,86.988 78.325,87.601C75.773,88.307 73.179,88.854 70.567,89.283C67.378,89.806 64.16,90.151 60.935,90.365C57.631,90.583 54.318,90.663 51.008,90.633C47.532,90.602 44.057,90.444 40.597,90.118C37.541,89.831 34.495,89.413 31.483,88.82C28.942,88.32 26.423,87.695 23.955,86.904C21.814,86.218 19.71,85.407 17.681,84.436C13.823,82.59 10.208,80.141 7.352,76.933C5.983,75.396 4.801,73.694 3.854,71.866C2.839,69.908 2.1,67.813 1.631,65.658C1.146,63.426 0.949,61.137 0.979,58.855C1.013,56.337 1.329,53.825 1.92,51.378C2.504,48.957 3.355,46.603 4.436,44.36C5.625,41.891 7.092,39.558 8.775,37.395C9.61,36.322 10.499,35.294 11.43,34.303L11.48,34.25C11.459,33.975 11.44,33.701 11.422,33.426C11.404,33.139 11.388,32.852 11.374,32.564C11.332,31.605 11.312,30.646 11.324,29.686C11.349,27.847 11.486,26.008 11.751,24.187C12.01,22.417 12.39,20.665 12.895,18.949C13.176,17.994 13.498,17.052 13.851,16.121C13.896,16.007 13.896,16.008 13.942,15.894C14.097,15.538 14.278,15.197 14.534,14.902C14.898,14.481 15.387,14.185 15.926,14.05C16.151,13.994 16.38,13.969 16.612,13.961C16.692,13.961 16.692,13.961 16.772,13.962ZM76.51,85.326L77.697,75.808L87.371,62.348C87.903,61.606 88.021,60.716 87.694,59.9C87.367,59.084 86.626,58.42 85.658,58.074L68.073,51.795L55.273,40.176C54.568,39.536 53.56,39.171 52.502,39.171C51.444,39.171 50.435,39.536 49.731,40.176L36.93,51.795L19.346,58.074C18.377,58.42 17.636,59.084 17.309,59.9C16.982,60.716 17.1,61.606 17.633,62.348L27.307,75.808L28.506,85.426C30.756,85.989 33.035,86.433 35.328,86.785C37.955,87.189 40.6,87.472 43.251,87.662C46.902,87.923 50.564,88.005 54.223,87.96C57.011,87.925 59.798,87.798 62.576,87.569C65.852,87.298 69.119,86.88 72.348,86.257C73.744,85.987 75.133,85.68 76.51,85.326ZM38.809,60.306C41.262,60.306 43.254,62.994 43.254,66.306C43.254,69.617 41.262,72.306 38.809,72.306C36.356,72.306 34.365,69.617 34.365,66.306C34.365,62.994 36.356,60.306 38.809,60.306ZM65.809,60.306C68.262,60.306 70.254,62.994 70.254,66.306C70.254,69.617 68.262,72.306 65.809,72.306C63.356,72.306 61.365,69.617 61.365,66.306C61.365,62.994 63.356,60.306 65.809,60.306Z" style="fill:rgb(45,39,37);"/>
    </g>
</svg>
