<?xml version="1.0" standalone="no"?>
<!DOCTYPE svg PUBLIC "-//W3C//DTD SVG 20010904//EN"
 "http://www.w3.org/TR/2001/REC-SVG-20010904/DTD/svg10.dtd">
<svg version="1.0" xmlns="http://www.w3.org/2000/svg"
 width="300.000000pt" height="300.000000pt" viewBox="0 0 300.000000 300.000000"
 preserveAspectRatio="xMidYMid meet">
<metadata>
Created by potrace 1.11, written by Peter Selinger 2001-2013
</metadata>
<g transform="translate(0.000000,300.000000) scale(0.100000,-0.100000)"
fill="#000000" stroke="none">
<path d="M433 2586 c-56 -41 -107 -268 -105 -471 0 -96 -1 -101 -28 -130 -124
-135 -220 -328 -257 -520 -15 -74 -8 -305 11 -373 83 -308 333 -511 755 -617
53 -13 116 -27 141 -30 24 -4 47 -8 50 -10 5 -3 74 -10 225 -25 89 -8 556 -6
595 3 14 3 52 9 85 12 33 3 71 7 85 10 13 3 42 7 65 11 138 20 323 78 450 141
249 124 406 313 450 543 14 76 17 245 6 314 -32 192 -128 392 -256 534 l-45
49 -4 104 c-6 111 -6 113 -30 205 -18 68 -70 200 -88 222 -24 28 -56 32 -138
16 -117 -22 -191 -54 -287 -127 -54 -40 -78 -44 -148 -24 -57 17 -219 46 -285
52 -215 20 -429 3 -640 -50 -30 -8 -62 -13 -70 -11 -8 1 -67 27 -130 58 -122
60 -278 116 -344 124 -28 4 -48 0 -63 -10z m1139 -731 c14 -9 130 -112 192
-170 171 -159 189 -172 296 -210 449 -159 432 -151 450 -194 16 -40 13 -46
-148 -269 -73 -101 -134 -196 -136 -210 -8 -50 -15 -107 -21 -162 -10 -88 -9
-87 -88 -103 -194 -41 -364 -58 -602 -58 -142 0 -320 7 -375 16 -14 2 -49 7
-78 10 -96 10 -234 43 -243 56 -5 8 -9 30 -10 49 0 19 -2 44 -5 55 -2 11 -8
52 -13 91 -8 64 -14 78 -72 160 -35 49 -67 94 -72 99 -53 64 -149 213 -151
233 -4 37 17 66 62 85 44 19 424 156 467 169 17 4 50 27 75 49 319 292 345
315 375 321 27 6 76 -2 97 -17z"/>
<path d="M1068 1273 c-70 -28 -112 -137 -89 -230 16 -60 42 -96 85 -117 75
-35 155 14 180 110 38 148 -61 283 -176 237z"/>
<path d="M1862 1280 c-134 -30 -157 -279 -32 -349 78 -43 165 7 190 108 32
136 -52 264 -158 241z"/>
</g>
</svg>
